PathFileType	3	(X/Y/Z)	D:\Jess\Healthy\Labelled\HA01\20250317\SRRun01.trc
DataRate	CameraRate	NumFrames	NumMarkers	Units	OrigDataRate	OrigDataStartFrame	OrigNumFrames
250.0	250.0	4	37	mm	250.0	36250	2501
Frame#	Time	C7			T10			CLAV			LSHO			RSHO			LASIS			RASIS			LPSIS			RPSIS			LILCR			RILCR			LGTR			LTHI			LLTHI			LLEP			LMEP			LPSH			LLSH			LDSH			LLMAL			LMMAL			LTOE			L5TH			LHEE			RGTR			RTHI			RLTHI			RLEP			RMEP			RPSH			RLSH			RDSH			RLMAL			RMMAL			RTOE			R5TH			RHEE			
		X1	Y1	Z1	X2	Y2	Z2	X3	Y3	Z3	X4	Y4	Z4	X5	Y5	Z5	X6	Y6	Z6	X7	Y7	Z7	X8	Y8	Z8	X9	Y9	Z9	X10	Y10	Z10	X11	Y11	Z11	X12	Y12	Z12	X13	Y13	Z13	X14	Y14	Z14	X15	Y15	Z15	X16	Y16	Z16	X17	Y17	Z17	X18	Y18	Z18	X19	Y19	Z19	X20	Y20	Z20	X21	Y21	Z21	X22	Y22	Z22	X23	Y23	Z23	X24	Y24	Z24	X25	Y25	Z25	X26	Y26	Z26	X27	Y27	Z27	X28	Y28	Z28	X29	Y29	Z29	X30	Y30	Z30	X31	Y31	Z31	X32	Y32	Z32	X33	Y33	Z33	X34	Y34	Z34	X35	Y35	Z35	X36	Y36	Z36	X37	Y37	Z37	

1251	144.996	1075.431075456075	1519.97800757586	-336.3417554801455	992.463232884597	1302.94569241873	-370.344593998149	1194.985046650231	1424.733829515211	-304.5165113403349	1092.462468724464	1491.757455388136	-180.4078960418418	1176.67052308149	1498.274768231464	-460.1544708220803	1213.211084150127	994.5533596956233	-419.8176606760501	1173.848252278553	1015.931341606723	-189.287649810405	1005.047956610623	1077.667916962336	-367.8244780408864	988.0845948594989	1077.484237327664	-309.1451197032337	1157.668108168175	1075.723709551167	-481.4519908339238	1097.648404940337	1109.149091983816	-144.648321160727	1132.657147859145	907.7630653742602	-500.6124379161997	1186.935595129498	744.6155493476554	-395.0370651445476	1061.446955594912	648.2640027477992	-455.9836354482102	1011.91203414341	520.1899076335775	-432.876514420119	nan	nan	nan	968.6379889376094	417.4205625213823	-384.606654925884	812.5010218100077	425.4856693219178	-447.9102423725784	763.236725493614	327.3357894758266	-402.5410819451581	650.4551575271864	329.5960566800212	-436.1980861783976	nan	nan	nan	622.773494167024	177.7478162585984	-441.9867076753429	581.1710144940654	216.0774102226273	-475.6984448447763	609.32190721082	387.9721068195415	-372.8155410404995	1100.794749217632	934.8265049652751	-106.7890143376976	1233.696303030414	810.5378883987556	-204.9284002844489	1183.35411385967	689.3548755467743	-130.8557309015675	1213.926126208674	536.8248894125355	-152.433609129915	nan	nan	nan	1284.26820214812	439.4533538337647	-190.7908422835189	1198.776012646242	327.2927868897699	-167.725543812513	1282.179858580076	231.5487202352829	-213.0172338278757	1251.175353955841	119.2357274482687	-204.2030605047659	nan	nan	nan	1395.954690797769	88.65635059696876	-218.6784630316866	1365.494084317488	47.19219760696851	-187.2798413396469	1183.40032753936	92.51517354697717	-272.130387921578	
1252	145	1075.034144390972	1516.834162579118	-335.8060710786519	992.086217525787	1299.929141644325	-369.3736160346158	1195.062069000526	1421.681098241041	-304.2992203007032	1092.878138041703	1488.729218296793	-179.804894341952	1176.432373254022	1495.115223151739	-460.0266881407832	1213.25608280097	991.9543885312814	-419.3208737821005	1173.249685025492	1012.627242434748	-188.3613684645189	1004.794979866121	1073.767978881403	-367.6326914986154	987.803545954591	1073.497894957684	-309.0723954089268	1156.939660484035	1072.638345898476	-481.3980640855616	1096.939225936396	1105.43467858984	-143.9137365643779	1133.710912304732	904.0207950734695	-499.9296426176612	1189.581678994496	741.7857648660057	-394.1046004844081	1065.734620110692	643.5692129696197	-455.3963885926369	1017.282982024208	516.062600048749	-432.3465473881041	nan	nan	nan	972.9505192775601	414.2902164103618	-384.4725615641013	816.8780841376175	425.8896085617441	-447.6495338179544	765.4254725957161	328.9231986500279	-402.5984456430193	652.5955644939836	333.7537054516029	-436.549306509257	nan	nan	nan	622.9549499269806	182.3816235254421	-442.6450160164662	581.9243317105016	221.3134785235698	-476.3741788158596	612.0089821296198	392.6223055895954	-373.1578004266368	1099.112822951091	930.6446565583582	-106.5290679127414	1233.922660972924	808.5518384018571	-203.802488880176	1183.243619864367	686.6192467124349	-130.4047305189345	1213.44242548966	533.9989817826755	-151.298606811974	nan	nan	nan	1282.558107854339	435.9986287151371	-190.2894884758016	1195.620313428507	324.8988473905731	-167.2716962053088	1276.624117742114	228.1880238901023	-214.0439988225266	1243.072641069582	117.3073579591511	-205.3698256776346	nan	nan	nan	1387.625103180711	84.8425677815448	-220.1665800169702	1356.348073239001	44.64390014823883	-187.6287880049823	1174.802574303327	91.59593919254326	-273.3316999594961	
1253	145.004	1074.564269033135	1513.57171674877	-335.279331572095	991.6732297627451	1296.745005473852	-368.3928316638958	1195.170657401811	1418.602375029959	-304.1063198483243	1093.310578717506	1485.634349038465	-179.1807891470503	1176.126643903115	1491.86794153016	-459.9554206392626	1213.253580554048	989.1328037382136	-418.7765698168434	1172.564780212869	1009.14337992895	-187.3870254725463	1004.496177114177	1069.606445931021	-367.4960592661777	987.4932867069283	1069.255330871265	-309.0660363716249	1156.311813584717	1069.287900544495	-481.3557435732353	1096.185077878242	1101.494834826172	-143.1599626793513	1134.811091040195	900.0355601418778	-499.2497248380839	1192.209131720208	738.851622308351	-393.2626277800657	1070.018315577379	638.8983770960671	-454.8943259066579	1022.741855879659	511.9338812462607	-431.9317243513204	nan	nan	nan	977.4577715389795	411.182369965437	-384.4001662507287	821.5372549571268	426.226841614593	-447.433784002429	767.9692618282178	330.4496983806803	-402.7141249790744	655.1584611182518	337.786778436946	-436.9320702744947	nan	nan	nan	623.5319721189123	186.9091306183488	-443.3008428530912	583.0895549592526	226.4413270181926	-477.053311689406	615.1569447204942	397.1529283406878	-373.5493344891628	1097.363084230245	926.3318324816649	-106.2487840792668	1234.289843319908	806.6864501186191	-202.5468521213899	1183.153745672382	683.9178427622496	-129.8569875086026	1213.014257936618	531.0991381833461	-150.1424015902101	nan	nan	nan	1280.845532698602	432.4989575296061	-189.9088547993313	1192.392586850642	322.5259945349963	-166.9234916105366	1270.77182440659	224.8736105136326	-215.3769031276627	1234.490268412199	115.5742646902454	-206.8576769313157	nan	nan	nan	1378.78053021708	81.3137151227383	-221.7662664477145	1346.694573904995	42.47364197522338	-188.0328741015602	1165.740527601921	90.72276564429878	-274.8497353262496	
1254	145.008	1074.031923764735	1510.216246537911	-334.7646179515533	991.219324038964	1293.412142719424	-367.4115106125656	1195.308829294208	1415.500701732603	-303.9428544525637	1093.764487664311	1482.486130691215	-178.5350383479148	1175.760878082826	1488.550058170183	-459.9407675100807	1213.194640633388	986.0839975507358	-418.1802520596902	1171.785139804073	1005.489480186836	-186.358463283179	1004.144821826004	1065.199197528597	-367.4117510704579	987.1452697639736	1064.779508036671	-309.1269808829634	1155.787644810131	1065.668593999683	-481.3275320541119	1095.385324739494	1097.332505997935	-142.3875202283756	1135.959150036482	895.8295761595787	-498.5754816661168	1194.812378742823	735.8396624919155	-392.5131470453094	1074.296395113373	634.2739918456876	-454.4767652722531	1028.291763052597	507.8170315205584	-431.634042218573	nan	nan	nan	982.1570159185553	408.1068129605007	-384.3892284254899	826.4719953259358	426.4964436750078	-447.2670576599041	770.8646401292708	331.9077384934425	-402.8858882899934	658.138062439146	341.6830807712687	-437.3406236745444	nan	nan	nan	624.4981613783755	191.321448447168	-443.9599999545692	584.6595521774038	231.4531220473623	-477.7376176639722	618.7618050536294	401.5470004685692	-373.9754734059293	1095.555063735225	921.9117347144102	-105.9495032814475	1234.756192551757	804.8933104084894	-201.1458399302235	1183.057082901212	681.2443785243239	-129.2053786677939	1212.637973181021	528.1366679098461	-148.9780621824743	nan	nan	nan	1279.132902672969	428.9853694513823	-189.6721163111725	1189.112718483007	320.194729948763	-166.6971658065195	1264.667644607732	221.6471571738734	-217.0061113581158	1225.503809532052	114.0651408009787	-208.6558110606169	nan	nan	nan	1369.486966500752	78.11922421949008	-223.4509576619111	1336.612877279146	40.71041947104622	-188.4954251186125	1156.287771089437	89.90857739528616	-276.6663798175295	
